<mxfile host="app.diagrams.net" modified="2023-11-14T17:03:53.217Z" agent="Mozilla/5.0 (Windows NT 10.0; Win64; x64) AppleWebKit/537.36 (KHTML, like Gecko) Chrome/119.0.0.0 Safari/537.36 Edg/119.0.0.0" etag="Mnd9EYRtZEP06II20WHO" version="22.1.0" type="device" pages="3">
  <diagram id="43CVZKSKVXU8KpuHoS9b" name="domain">
    <mxGraphModel dx="1613" dy="1431" grid="0" gridSize="10" guides="1" tooltips="1" connect="1" arrows="1" fold="1" page="0" pageScale="1" pageWidth="850" pageHeight="1100" math="0" shadow="0">
      <root>
        <mxCell id="0" />
        <mxCell id="1" parent="0" />
        <mxCell id="WjOkmD-sPPlVoTSnx6pb-5" value="&lt;p style=&quot;margin:0px;margin-top:4px;text-align:center;&quot;&gt;&lt;b&gt;Registry&lt;/b&gt;&lt;/p&gt;&lt;hr size=&quot;1&quot;&gt;&lt;div style=&quot;height:2px;&quot;&gt;&lt;/div&gt;" style="verticalAlign=top;align=left;overflow=fill;fontSize=12;fontFamily=Helvetica;html=1;whiteSpace=wrap;" parent="1" vertex="1">
          <mxGeometry x="364" y="70" width="140" height="60" as="geometry" />
        </mxCell>
        <mxCell id="WjOkmD-sPPlVoTSnx6pb-6" value="&lt;p style=&quot;margin:0px;margin-top:4px;text-align:center;&quot;&gt;&lt;b&gt;Temperature&lt;/b&gt;&lt;/p&gt;&lt;hr size=&quot;1&quot;&gt;&lt;div style=&quot;height:2px;&quot;&gt;&lt;/div&gt;" style="verticalAlign=top;align=left;overflow=fill;fontSize=12;fontFamily=Helvetica;html=1;whiteSpace=wrap;" parent="1" vertex="1">
          <mxGeometry x="671" y="272" width="140" height="60" as="geometry" />
        </mxCell>
        <mxCell id="WjOkmD-sPPlVoTSnx6pb-7" value="&lt;p style=&quot;margin:0px;margin-top:4px;text-align:center;&quot;&gt;&lt;b&gt;Sensor&lt;/b&gt;&lt;/p&gt;&lt;hr size=&quot;1&quot;&gt;&lt;div style=&quot;height:2px;&quot;&gt;&amp;nbsp;deployed&lt;/div&gt;" style="verticalAlign=top;align=left;overflow=fill;fontSize=12;fontFamily=Helvetica;html=1;whiteSpace=wrap;" parent="1" vertex="1">
          <mxGeometry x="364" y="270" width="140" height="60" as="geometry" />
        </mxCell>
        <mxCell id="WjOkmD-sPPlVoTSnx6pb-8" value="&lt;p style=&quot;margin:0px;margin-top:4px;text-align:center;&quot;&gt;&lt;b&gt;Sensor_list&lt;/b&gt;&lt;/p&gt;&lt;hr size=&quot;1&quot;&gt;&lt;div style=&quot;height:2px;&quot;&gt;&lt;/div&gt;" style="verticalAlign=top;align=left;overflow=fill;fontSize=12;fontFamily=Helvetica;html=1;whiteSpace=wrap;" parent="1" vertex="1">
          <mxGeometry x="364" y="456" width="140" height="60" as="geometry" />
        </mxCell>
        <mxCell id="WjOkmD-sPPlVoTSnx6pb-9" value="&lt;p style=&quot;margin:0px;margin-top:4px;text-align:center;&quot;&gt;&lt;b&gt;Location&lt;/b&gt;&lt;/p&gt;&lt;hr size=&quot;1&quot;&gt;&lt;div style=&quot;height:2px;&quot;&gt;&lt;/div&gt;" style="verticalAlign=top;align=left;overflow=fill;fontSize=12;fontFamily=Helvetica;html=1;whiteSpace=wrap;" parent="1" vertex="1">
          <mxGeometry x="19" y="272" width="140" height="60" as="geometry" />
        </mxCell>
        <mxCell id="WjOkmD-sPPlVoTSnx6pb-10" value="&lt;p style=&quot;margin:0px;margin-top:4px;text-align:center;&quot;&gt;&lt;b&gt;Location_list&lt;/b&gt;&lt;/p&gt;&lt;hr size=&quot;1&quot;&gt;&lt;div style=&quot;height:2px;&quot;&gt;&lt;/div&gt;" style="verticalAlign=top;align=left;overflow=fill;fontSize=12;fontFamily=Helvetica;html=1;whiteSpace=wrap;" parent="1" vertex="1">
          <mxGeometry x="-250" y="272" width="140" height="60" as="geometry" />
        </mxCell>
        <mxCell id="WjOkmD-sPPlVoTSnx6pb-11" value="&lt;p style=&quot;margin:0px;margin-top:4px;text-align:center;&quot;&gt;&lt;b&gt;Temperature_list&lt;/b&gt;&lt;/p&gt;&lt;hr size=&quot;1&quot;&gt;&lt;div style=&quot;height:2px;&quot;&gt;&lt;/div&gt;" style="verticalAlign=top;align=left;overflow=fill;fontSize=12;fontFamily=Helvetica;html=1;whiteSpace=wrap;" parent="1" vertex="1">
          <mxGeometry x="943" y="272" width="140" height="60" as="geometry" />
        </mxCell>
        <mxCell id="WjOkmD-sPPlVoTSnx6pb-12" value="&lt;p style=&quot;margin:0px;margin-top:4px;text-align:center;&quot;&gt;&lt;b&gt;Map&lt;/b&gt;&lt;/p&gt;&lt;hr size=&quot;1&quot;&gt;&lt;div style=&quot;height:2px;&quot;&gt;&lt;/div&gt;" style="verticalAlign=top;align=left;overflow=fill;fontSize=12;fontFamily=Helvetica;html=1;whiteSpace=wrap;" parent="1" vertex="1">
          <mxGeometry x="19" y="460" width="140" height="60" as="geometry" />
        </mxCell>
        <mxCell id="WjOkmD-sPPlVoTSnx6pb-13" value="&lt;p style=&quot;margin:0px;margin-top:4px;text-align:center;&quot;&gt;&lt;b&gt;Map_item&lt;/b&gt;&lt;/p&gt;&lt;hr size=&quot;1&quot;&gt;&lt;div style=&quot;height:2px;&quot;&gt;&lt;/div&gt;" style="verticalAlign=top;align=left;overflow=fill;fontSize=12;fontFamily=Helvetica;html=1;whiteSpace=wrap;" parent="1" vertex="1">
          <mxGeometry x="19" y="648" width="140" height="60" as="geometry" />
        </mxCell>
        <mxCell id="WjOkmD-sPPlVoTSnx6pb-14" value="&lt;p style=&quot;margin:0px;margin-top:4px;text-align:center;&quot;&gt;&lt;b&gt;Read&lt;/b&gt;&lt;/p&gt;&lt;hr size=&quot;1&quot;&gt;&lt;div style=&quot;height:2px;&quot;&gt;&lt;/div&gt;" style="verticalAlign=top;align=left;overflow=fill;fontSize=12;fontFamily=Helvetica;html=1;whiteSpace=wrap;" parent="1" vertex="1">
          <mxGeometry x="671" y="456" width="140" height="60" as="geometry" />
        </mxCell>
        <mxCell id="WjOkmD-sPPlVoTSnx6pb-15" value="&lt;p style=&quot;margin:0px;margin-top:4px;text-align:center;&quot;&gt;&lt;b&gt;Read_item&lt;/b&gt;&lt;/p&gt;&lt;hr size=&quot;1&quot;&gt;&lt;div style=&quot;height:2px;&quot;&gt;&lt;/div&gt;" style="verticalAlign=top;align=left;overflow=fill;fontSize=12;fontFamily=Helvetica;html=1;whiteSpace=wrap;" parent="1" vertex="1">
          <mxGeometry x="671" y="640" width="140" height="60" as="geometry" />
        </mxCell>
        <mxCell id="WjOkmD-sPPlVoTSnx6pb-16" value="" style="endArrow=diamondThin;endFill=0;endSize=24;html=1;rounded=0;exitX=0.5;exitY=1;exitDx=0;exitDy=0;entryX=0.5;entryY=0;entryDx=0;entryDy=0;" parent="1" source="WjOkmD-sPPlVoTSnx6pb-7" target="WjOkmD-sPPlVoTSnx6pb-8" edge="1">
          <mxGeometry width="160" relative="1" as="geometry">
            <mxPoint x="344" y="387" as="sourcePoint" />
            <mxPoint x="504" y="387" as="targetPoint" />
          </mxGeometry>
        </mxCell>
        <mxCell id="WjOkmD-sPPlVoTSnx6pb-17" value="" style="endArrow=diamondThin;endFill=0;endSize=24;html=1;rounded=0;exitX=0.5;exitY=1;exitDx=0;exitDy=0;entryX=0.5;entryY=0;entryDx=0;entryDy=0;" parent="1" source="WjOkmD-sPPlVoTSnx6pb-14" target="WjOkmD-sPPlVoTSnx6pb-15" edge="1">
          <mxGeometry width="160" relative="1" as="geometry">
            <mxPoint x="701" y="567" as="sourcePoint" />
            <mxPoint x="861" y="567" as="targetPoint" />
          </mxGeometry>
        </mxCell>
        <mxCell id="WjOkmD-sPPlVoTSnx6pb-18" value="" style="endArrow=diamondThin;endFill=0;endSize=24;html=1;rounded=0;exitX=0.5;exitY=1;exitDx=0;exitDy=0;entryX=0.5;entryY=0;entryDx=0;entryDy=0;" parent="1" source="WjOkmD-sPPlVoTSnx6pb-12" target="WjOkmD-sPPlVoTSnx6pb-13" edge="1">
          <mxGeometry width="160" relative="1" as="geometry">
            <mxPoint x="81" y="549" as="sourcePoint" />
            <mxPoint x="241" y="549" as="targetPoint" />
          </mxGeometry>
        </mxCell>
        <mxCell id="WjOkmD-sPPlVoTSnx6pb-19" value="" style="endArrow=diamondThin;endFill=0;endSize=24;html=1;rounded=0;exitX=0;exitY=0.5;exitDx=0;exitDy=0;entryX=1;entryY=0.5;entryDx=0;entryDy=0;" parent="1" source="WjOkmD-sPPlVoTSnx6pb-9" target="WjOkmD-sPPlVoTSnx6pb-10" edge="1">
          <mxGeometry width="160" relative="1" as="geometry">
            <mxPoint x="-78" y="384" as="sourcePoint" />
            <mxPoint x="82" y="384" as="targetPoint" />
          </mxGeometry>
        </mxCell>
        <mxCell id="WjOkmD-sPPlVoTSnx6pb-20" value="" style="endArrow=diamondThin;endFill=0;endSize=24;html=1;rounded=0;exitX=1;exitY=0.5;exitDx=0;exitDy=0;entryX=0;entryY=0.5;entryDx=0;entryDy=0;" parent="1" source="WjOkmD-sPPlVoTSnx6pb-6" target="WjOkmD-sPPlVoTSnx6pb-11" edge="1">
          <mxGeometry width="160" relative="1" as="geometry">
            <mxPoint x="834" y="426" as="sourcePoint" />
            <mxPoint x="994" y="426" as="targetPoint" />
          </mxGeometry>
        </mxCell>
        <mxCell id="WjOkmD-sPPlVoTSnx6pb-22" value="" style="endArrow=none;html=1;edgeStyle=orthogonalEdgeStyle;rounded=0;exitX=0.5;exitY=1;exitDx=0;exitDy=0;entryX=0.5;entryY=0;entryDx=0;entryDy=0;" parent="1" source="WjOkmD-sPPlVoTSnx6pb-5" target="WjOkmD-sPPlVoTSnx6pb-7" edge="1">
          <mxGeometry relative="1" as="geometry">
            <mxPoint x="400" y="184" as="sourcePoint" />
            <mxPoint x="560" y="184" as="targetPoint" />
          </mxGeometry>
        </mxCell>
        <mxCell id="WjOkmD-sPPlVoTSnx6pb-23" value="1" style="edgeLabel;resizable=0;html=1;align=left;verticalAlign=bottom;" parent="WjOkmD-sPPlVoTSnx6pb-22" connectable="0" vertex="1">
          <mxGeometry x="-1" relative="1" as="geometry">
            <mxPoint x="3" y="27" as="offset" />
          </mxGeometry>
        </mxCell>
        <mxCell id="WjOkmD-sPPlVoTSnx6pb-24" value="&lt;font style=&quot;font-size: 14px;&quot;&gt;*&lt;/font&gt;" style="edgeLabel;resizable=0;html=1;align=right;verticalAlign=bottom;" parent="WjOkmD-sPPlVoTSnx6pb-22" connectable="0" vertex="1">
          <mxGeometry x="1" relative="1" as="geometry">
            <mxPoint x="10" y="-3" as="offset" />
          </mxGeometry>
        </mxCell>
        <mxCell id="WjOkmD-sPPlVoTSnx6pb-25" value="" style="endArrow=none;html=1;edgeStyle=orthogonalEdgeStyle;rounded=0;exitX=1;exitY=0.5;exitDx=0;exitDy=0;entryX=0.5;entryY=0;entryDx=0;entryDy=0;" parent="1" source="WjOkmD-sPPlVoTSnx6pb-5" target="WjOkmD-sPPlVoTSnx6pb-6" edge="1">
          <mxGeometry relative="1" as="geometry">
            <mxPoint x="516" y="114" as="sourcePoint" />
            <mxPoint x="676" y="114" as="targetPoint" />
          </mxGeometry>
        </mxCell>
        <mxCell id="WjOkmD-sPPlVoTSnx6pb-26" value="1" style="edgeLabel;resizable=0;html=1;align=left;verticalAlign=bottom;" parent="WjOkmD-sPPlVoTSnx6pb-25" connectable="0" vertex="1">
          <mxGeometry x="-1" relative="1" as="geometry">
            <mxPoint x="177" y="-570" as="offset" />
          </mxGeometry>
        </mxCell>
        <mxCell id="WjOkmD-sPPlVoTSnx6pb-27" value="&lt;font style=&quot;font-size: 14px;&quot;&gt;*&lt;/font&gt;" style="edgeLabel;resizable=0;html=1;align=right;verticalAlign=bottom;" parent="WjOkmD-sPPlVoTSnx6pb-25" connectable="0" vertex="1">
          <mxGeometry x="1" relative="1" as="geometry">
            <mxPoint x="-6" y="-3" as="offset" />
          </mxGeometry>
        </mxCell>
        <mxCell id="WjOkmD-sPPlVoTSnx6pb-28" value="" style="endArrow=none;html=1;edgeStyle=orthogonalEdgeStyle;rounded=0;exitX=0;exitY=0.5;exitDx=0;exitDy=0;entryX=0.5;entryY=0;entryDx=0;entryDy=0;" parent="1" source="WjOkmD-sPPlVoTSnx6pb-5" target="WjOkmD-sPPlVoTSnx6pb-9" edge="1">
          <mxGeometry relative="1" as="geometry">
            <mxPoint x="156" y="193" as="sourcePoint" />
            <mxPoint x="316" y="193" as="targetPoint" />
          </mxGeometry>
        </mxCell>
        <mxCell id="WjOkmD-sPPlVoTSnx6pb-30" value="&lt;font style=&quot;font-size: 14px;&quot;&gt;*&lt;/font&gt;" style="edgeLabel;resizable=0;html=1;align=right;verticalAlign=bottom;" parent="WjOkmD-sPPlVoTSnx6pb-28" connectable="0" vertex="1">
          <mxGeometry x="1" relative="1" as="geometry">
            <mxPoint x="-4" y="-1" as="offset" />
          </mxGeometry>
        </mxCell>
        <mxCell id="WjOkmD-sPPlVoTSnx6pb-37" value="" style="endArrow=none;html=1;edgeStyle=orthogonalEdgeStyle;rounded=0;entryX=0;entryY=0.5;entryDx=0;entryDy=0;exitX=1;exitY=0.5;exitDx=0;exitDy=0;" parent="1" source="WjOkmD-sPPlVoTSnx6pb-9" target="WjOkmD-sPPlVoTSnx6pb-7" edge="1">
          <mxGeometry relative="1" as="geometry">
            <mxPoint x="184" y="315" as="sourcePoint" />
            <mxPoint x="344" y="315" as="targetPoint" />
          </mxGeometry>
        </mxCell>
        <mxCell id="WjOkmD-sPPlVoTSnx6pb-38" value="&lt;font style=&quot;font-size: 14px;&quot;&gt;*&lt;/font&gt;" style="edgeLabel;resizable=0;html=1;align=left;verticalAlign=bottom;" parent="WjOkmD-sPPlVoTSnx6pb-37" connectable="0" vertex="1">
          <mxGeometry x="-1" relative="1" as="geometry">
            <mxPoint x="4" y="1" as="offset" />
          </mxGeometry>
        </mxCell>
        <mxCell id="WjOkmD-sPPlVoTSnx6pb-39" value="&lt;font style=&quot;font-size: 14px;&quot;&gt;*&lt;/font&gt;" style="edgeLabel;resizable=0;html=1;align=right;verticalAlign=bottom;" parent="WjOkmD-sPPlVoTSnx6pb-37" connectable="0" vertex="1">
          <mxGeometry x="1" relative="1" as="geometry">
            <mxPoint x="-5" as="offset" />
          </mxGeometry>
        </mxCell>
        <mxCell id="WjOkmD-sPPlVoTSnx6pb-40" value="" style="endArrow=none;dashed=1;html=1;rounded=0;exitX=0.5;exitY=0;exitDx=0;exitDy=0;" parent="1" source="WjOkmD-sPPlVoTSnx6pb-12" edge="1">
          <mxGeometry width="50" height="50" relative="1" as="geometry">
            <mxPoint x="159" y="435" as="sourcePoint" />
            <mxPoint x="258" y="305" as="targetPoint" />
          </mxGeometry>
        </mxCell>
        <mxCell id="WjOkmD-sPPlVoTSnx6pb-42" value="" style="endArrow=none;html=1;edgeStyle=orthogonalEdgeStyle;rounded=0;exitX=1;exitY=0.5;exitDx=0;exitDy=0;entryX=0;entryY=0.5;entryDx=0;entryDy=0;" parent="1" source="WjOkmD-sPPlVoTSnx6pb-7" target="WjOkmD-sPPlVoTSnx6pb-6" edge="1">
          <mxGeometry relative="1" as="geometry">
            <mxPoint x="515" y="346" as="sourcePoint" />
            <mxPoint x="625" y="327" as="targetPoint" />
          </mxGeometry>
        </mxCell>
        <mxCell id="WjOkmD-sPPlVoTSnx6pb-43" value="&lt;font style=&quot;font-size: 14px;&quot;&gt;*&lt;/font&gt;" style="edgeLabel;resizable=0;html=1;align=left;verticalAlign=bottom;" parent="WjOkmD-sPPlVoTSnx6pb-42" connectable="0" vertex="1">
          <mxGeometry x="-1" relative="1" as="geometry">
            <mxPoint x="5" y="-2" as="offset" />
          </mxGeometry>
        </mxCell>
        <mxCell id="WjOkmD-sPPlVoTSnx6pb-44" value="&lt;font style=&quot;font-size: 14px;&quot;&gt;*&lt;/font&gt;" style="edgeLabel;resizable=0;html=1;align=right;verticalAlign=bottom;" parent="WjOkmD-sPPlVoTSnx6pb-42" connectable="0" vertex="1">
          <mxGeometry x="1" relative="1" as="geometry">
            <mxPoint x="-9" y="-4" as="offset" />
          </mxGeometry>
        </mxCell>
        <mxCell id="WjOkmD-sPPlVoTSnx6pb-45" value="" style="endArrow=none;dashed=1;html=1;rounded=0;exitX=0.5;exitY=0;exitDx=0;exitDy=0;" parent="1" source="WjOkmD-sPPlVoTSnx6pb-14" edge="1">
          <mxGeometry width="50" height="50" relative="1" as="geometry">
            <mxPoint x="540" y="351" as="sourcePoint" />
            <mxPoint x="590" y="301" as="targetPoint" />
          </mxGeometry>
        </mxCell>
        <mxCell id="WjOkmD-sPPlVoTSnx6pb-46" value="contains" style="text;html=1;strokeColor=none;fillColor=none;align=center;verticalAlign=middle;whiteSpace=wrap;rounded=0;" parent="1" vertex="1">
          <mxGeometry x="112" y="69" width="60" height="30" as="geometry" />
        </mxCell>
        <mxCell id="WjOkmD-sPPlVoTSnx6pb-50" value="contains" style="text;html=1;strokeColor=none;fillColor=none;align=center;verticalAlign=middle;whiteSpace=wrap;rounded=0;" parent="1" vertex="1">
          <mxGeometry x="618" y="73" width="60" height="30" as="geometry" />
        </mxCell>
        <mxCell id="WjOkmD-sPPlVoTSnx6pb-54" value="1" style="text;html=1;strokeColor=none;fillColor=none;align=center;verticalAlign=middle;whiteSpace=wrap;rounded=0;" parent="1" vertex="1">
          <mxGeometry x="507" y="67" width="29" height="30" as="geometry" />
        </mxCell>
        <mxCell id="WjOkmD-sPPlVoTSnx6pb-58" value="1" style="text;html=1;strokeColor=none;fillColor=none;align=center;verticalAlign=middle;whiteSpace=wrap;rounded=0;" parent="1" vertex="1">
          <mxGeometry x="329" y="65" width="29" height="30" as="geometry" />
        </mxCell>
        <mxCell id="WjOkmD-sPPlVoTSnx6pb-62" value="1" style="text;html=1;strokeColor=none;fillColor=none;align=center;verticalAlign=middle;whiteSpace=wrap;rounded=0;" parent="1" vertex="1">
          <mxGeometry x="-82" y="283" width="14" height="15" as="geometry" />
        </mxCell>
        <mxCell id="WjOkmD-sPPlVoTSnx6pb-65" value="&lt;font style=&quot;font-size: 14px;&quot;&gt;*&lt;/font&gt;" style="text;html=1;strokeColor=none;fillColor=none;align=center;verticalAlign=middle;whiteSpace=wrap;rounded=0;" parent="1" vertex="1">
          <mxGeometry x="-3" y="286" width="19" height="12" as="geometry" />
        </mxCell>
        <mxCell id="WjOkmD-sPPlVoTSnx6pb-67" value="1" style="text;html=1;strokeColor=none;fillColor=none;align=center;verticalAlign=middle;whiteSpace=wrap;rounded=0;" parent="1" vertex="1">
          <mxGeometry x="903" y="280" width="16" height="18" as="geometry" />
        </mxCell>
        <mxCell id="WjOkmD-sPPlVoTSnx6pb-68" value="&lt;font style=&quot;font-size: 14px;&quot;&gt;*&lt;/font&gt;" style="text;html=1;strokeColor=none;fillColor=none;align=center;verticalAlign=middle;whiteSpace=wrap;rounded=0;" parent="1" vertex="1">
          <mxGeometry x="813" y="286" width="29" height="13" as="geometry" />
        </mxCell>
        <mxCell id="WjOkmD-sPPlVoTSnx6pb-69" value="1" style="text;html=1;strokeColor=none;fillColor=none;align=center;verticalAlign=middle;whiteSpace=wrap;rounded=0;" parent="1" vertex="1">
          <mxGeometry x="436" y="408" width="15" height="30" as="geometry" />
        </mxCell>
        <mxCell id="WjOkmD-sPPlVoTSnx6pb-70" value="&lt;font style=&quot;font-size: 14px;&quot;&gt;*&lt;/font&gt;" style="text;html=1;strokeColor=none;fillColor=none;align=center;verticalAlign=middle;whiteSpace=wrap;rounded=0;" parent="1" vertex="1">
          <mxGeometry x="436" y="332" width="15" height="30" as="geometry" />
        </mxCell>
        <mxCell id="WjOkmD-sPPlVoTSnx6pb-71" value="1" style="text;html=1;strokeColor=none;fillColor=none;align=center;verticalAlign=middle;whiteSpace=wrap;rounded=0;" parent="1" vertex="1">
          <mxGeometry x="746" y="588" width="15" height="30" as="geometry" />
        </mxCell>
        <mxCell id="WjOkmD-sPPlVoTSnx6pb-72" value="&lt;font style=&quot;font-size: 14px;&quot;&gt;*&lt;/font&gt;" style="text;html=1;strokeColor=none;fillColor=none;align=center;verticalAlign=middle;whiteSpace=wrap;rounded=0;" parent="1" vertex="1">
          <mxGeometry x="746" y="522" width="15" height="30" as="geometry" />
        </mxCell>
        <mxCell id="WjOkmD-sPPlVoTSnx6pb-76" value="&lt;font style=&quot;font-size: 14px;&quot;&gt;*&lt;/font&gt;" style="text;html=1;strokeColor=none;fillColor=none;align=center;verticalAlign=middle;whiteSpace=wrap;rounded=0;" parent="1" vertex="1">
          <mxGeometry x="91" y="522" width="15" height="30" as="geometry" />
        </mxCell>
        <mxCell id="WjOkmD-sPPlVoTSnx6pb-77" value="1" style="text;html=1;strokeColor=none;fillColor=none;align=center;verticalAlign=middle;whiteSpace=wrap;rounded=0;" parent="1" vertex="1">
          <mxGeometry x="91" y="601" width="15" height="30" as="geometry" />
        </mxCell>
        <mxCell id="WjOkmD-sPPlVoTSnx6pb-78" value="contains" style="text;html=1;strokeColor=none;fillColor=none;align=center;verticalAlign=middle;whiteSpace=wrap;rounded=0;" parent="1" vertex="1">
          <mxGeometry x="436" y="188" width="60" height="18" as="geometry" />
        </mxCell>
      </root>
    </mxGraphModel>
  </diagram>
  <diagram id="C5RBs43oDa-KdzZeNtuy" name="class diagram">
    <mxGraphModel dx="2133" dy="1301" grid="0" gridSize="10" guides="1" tooltips="1" connect="1" arrows="1" fold="1" page="0" pageScale="1" pageWidth="827" pageHeight="1169" math="0" shadow="0">
      <root>
        <mxCell id="WIyWlLk6GJQsqaUBKTNV-0" />
        <mxCell id="WIyWlLk6GJQsqaUBKTNV-1" parent="WIyWlLk6GJQsqaUBKTNV-0" />
        <mxCell id="OLhQaKqy3DDgZYLrHggT-0" value="Sensor" style="swimlane;fontStyle=0;align=center;verticalAlign=top;childLayout=stackLayout;horizontal=1;startSize=26;horizontalStack=0;resizeParent=1;resizeLast=0;collapsible=1;marginBottom=0;rounded=0;shadow=0;strokeWidth=1;" parent="WIyWlLk6GJQsqaUBKTNV-1" vertex="1">
          <mxGeometry x="316" y="372.5" width="270" height="137" as="geometry">
            <mxRectangle x="230" y="140" width="160" height="26" as="alternateBounds" />
          </mxGeometry>
        </mxCell>
        <mxCell id="OLhQaKqy3DDgZYLrHggT-1" value="- sensorId: String" style="text;align=left;verticalAlign=top;spacingLeft=4;spacingRight=4;overflow=hidden;rotatable=0;points=[[0,0.5],[1,0.5]];portConstraint=eastwest;" parent="OLhQaKqy3DDgZYLrHggT-0" vertex="1">
          <mxGeometry y="26" width="270" height="26" as="geometry" />
        </mxCell>
        <mxCell id="OLhQaKqy3DDgZYLrHggT-4" value="" style="line;html=1;strokeWidth=1;align=left;verticalAlign=middle;spacingTop=-1;spacingLeft=3;spacingRight=3;rotatable=0;labelPosition=right;points=[];portConstraint=eastwest;" parent="OLhQaKqy3DDgZYLrHggT-0" vertex="1">
          <mxGeometry y="52" width="270" height="8" as="geometry" />
        </mxCell>
        <mxCell id="OLhQaKqy3DDgZYLrHggT-5" value="+ getSensorId()&#xa;&#xa;+ setSensorId()" style="text;align=left;verticalAlign=top;spacingLeft=4;spacingRight=4;overflow=hidden;rotatable=0;points=[[0,0.5],[1,0.5]];portConstraint=eastwest;" parent="OLhQaKqy3DDgZYLrHggT-0" vertex="1">
          <mxGeometry y="60" width="270" height="63" as="geometry" />
        </mxCell>
        <mxCell id="OLhQaKqy3DDgZYLrHggT-7" value="Registry" style="swimlane;fontStyle=0;align=center;verticalAlign=top;childLayout=stackLayout;horizontal=1;startSize=26;horizontalStack=0;resizeParent=1;resizeLast=0;collapsible=1;marginBottom=0;rounded=0;shadow=0;strokeWidth=1;" parent="WIyWlLk6GJQsqaUBKTNV-1" vertex="1">
          <mxGeometry x="311" y="-70" width="270" height="328" as="geometry">
            <mxRectangle x="230" y="140" width="160" height="26" as="alternateBounds" />
          </mxGeometry>
        </mxCell>
        <mxCell id="OLhQaKqy3DDgZYLrHggT-8" value=" - deployed: Set&lt;Sensor&gt;" style="text;align=left;verticalAlign=top;spacingLeft=4;spacingRight=4;overflow=hidden;rotatable=0;points=[[0,0.5],[1,0.5]];portConstraint=eastwest;" parent="OLhQaKqy3DDgZYLrHggT-7" vertex="1">
          <mxGeometry y="26" width="270" height="26" as="geometry" />
        </mxCell>
        <mxCell id="OLhQaKqy3DDgZYLrHggT-9" value="- map: Map&lt;Sensor, Location&gt; " style="text;align=left;verticalAlign=top;spacingLeft=4;spacingRight=4;overflow=hidden;rotatable=0;points=[[0,0.5],[1,0.5]];portConstraint=eastwest;rounded=0;shadow=0;html=0;" parent="OLhQaKqy3DDgZYLrHggT-7" vertex="1">
          <mxGeometry y="52" width="270" height="26" as="geometry" />
        </mxCell>
        <mxCell id="OLhQaKqy3DDgZYLrHggT-10" value="- read: Map&lt;Sensor, Temperature&gt;      " style="text;align=left;verticalAlign=top;spacingLeft=4;spacingRight=4;overflow=hidden;rotatable=0;points=[[0,0.5],[1,0.5]];portConstraint=eastwest;rounded=0;shadow=0;html=0;" parent="OLhQaKqy3DDgZYLrHggT-7" vertex="1">
          <mxGeometry y="78" width="270" height="26" as="geometry" />
        </mxCell>
        <mxCell id="OLhQaKqy3DDgZYLrHggT-11" value="" style="line;html=1;strokeWidth=1;align=left;verticalAlign=middle;spacingTop=-1;spacingLeft=3;spacingRight=3;rotatable=0;labelPosition=right;points=[];portConstraint=eastwest;" parent="OLhQaKqy3DDgZYLrHggT-7" vertex="1">
          <mxGeometry y="104" width="270" height="8" as="geometry" />
        </mxCell>
        <mxCell id="OLhQaKqy3DDgZYLrHggT-12" value="+ DeploySensor(sensor: Sensor, &#xa;location: Location, temp: Temperature): void &#xa;&#xa;+ ReadTemperature(location: Location, &#xa;temp: Temperature): void &#xa;&#xa;+ GetSensorLocation(sensor: Sensor): &#xa;Location &#xa;&#xa;+ GetLocationTemperature(location: &#xa;Location): Temperature    &#xa;&#xa;+ LocationCovered(location: Location): Boolean " style="text;align=left;verticalAlign=top;spacingLeft=4;spacingRight=4;overflow=hidden;rotatable=0;points=[[0,0.5],[1,0.5]];portConstraint=eastwest;" parent="OLhQaKqy3DDgZYLrHggT-7" vertex="1">
          <mxGeometry y="112" width="270" height="184" as="geometry" />
        </mxCell>
        <mxCell id="OLhQaKqy3DDgZYLrHggT-13" value="DeployedSensor" style="swimlane;fontStyle=0;align=center;verticalAlign=top;childLayout=stackLayout;horizontal=1;startSize=26;horizontalStack=0;resizeParent=1;resizeLast=0;collapsible=1;marginBottom=0;rounded=0;shadow=0;strokeWidth=1;" parent="WIyWlLk6GJQsqaUBKTNV-1" vertex="1">
          <mxGeometry x="-106" y="362" width="270" height="145" as="geometry">
            <mxRectangle x="230" y="140" width="160" height="26" as="alternateBounds" />
          </mxGeometry>
        </mxCell>
        <mxCell id="OLhQaKqy3DDgZYLrHggT-32" value="&amp;nbsp;- sensorId: String" style="text;html=1;align=left;verticalAlign=middle;resizable=0;points=[];autosize=1;strokeColor=none;fillColor=none;" parent="OLhQaKqy3DDgZYLrHggT-13" vertex="1">
          <mxGeometry y="26" width="270" height="26" as="geometry" />
        </mxCell>
        <mxCell id="OLhQaKqy3DDgZYLrHggT-17" value="" style="line;html=1;strokeWidth=1;align=left;verticalAlign=middle;spacingTop=-1;spacingLeft=3;spacingRight=3;rotatable=0;labelPosition=right;points=[];portConstraint=eastwest;" parent="OLhQaKqy3DDgZYLrHggT-13" vertex="1">
          <mxGeometry y="52" width="270" height="23" as="geometry" />
        </mxCell>
        <mxCell id="OLhQaKqy3DDgZYLrHggT-33" value="+ getSensorId()&lt;br&gt;&lt;br&gt;+ setSensorId()" style="text;html=1;align=left;verticalAlign=middle;resizable=0;points=[];autosize=1;strokeColor=none;fillColor=none;" parent="OLhQaKqy3DDgZYLrHggT-13" vertex="1">
          <mxGeometry y="75" width="270" height="55" as="geometry" />
        </mxCell>
        <mxCell id="OLhQaKqy3DDgZYLrHggT-19" value="Temperature" style="swimlane;fontStyle=0;align=center;verticalAlign=top;childLayout=stackLayout;horizontal=1;startSize=26;horizontalStack=0;resizeParent=1;resizeLast=0;collapsible=1;marginBottom=0;rounded=0;shadow=0;strokeWidth=1;" parent="WIyWlLk6GJQsqaUBKTNV-1" vertex="1">
          <mxGeometry x="744" y="44" width="270" height="133" as="geometry">
            <mxRectangle x="230" y="140" width="160" height="26" as="alternateBounds" />
          </mxGeometry>
        </mxCell>
        <mxCell id="OLhQaKqy3DDgZYLrHggT-20" value="- temp: Double" style="text;align=left;verticalAlign=top;spacingLeft=4;spacingRight=4;overflow=hidden;rotatable=0;points=[[0,0.5],[1,0.5]];portConstraint=eastwest;" parent="OLhQaKqy3DDgZYLrHggT-19" vertex="1">
          <mxGeometry y="26" width="270" height="26" as="geometry" />
        </mxCell>
        <mxCell id="OLhQaKqy3DDgZYLrHggT-23" value="" style="line;html=1;strokeWidth=1;align=left;verticalAlign=middle;spacingTop=-1;spacingLeft=3;spacingRight=3;rotatable=0;labelPosition=right;points=[];portConstraint=eastwest;" parent="OLhQaKqy3DDgZYLrHggT-19" vertex="1">
          <mxGeometry y="52" width="270" height="8" as="geometry" />
        </mxCell>
        <mxCell id="OLhQaKqy3DDgZYLrHggT-24" value="+ getTemperature(): Double&#xa;&#xa;+ setTemperature()" style="text;align=left;verticalAlign=top;spacingLeft=4;spacingRight=4;overflow=hidden;rotatable=0;points=[[0,0.5],[1,0.5]];portConstraint=eastwest;" parent="OLhQaKqy3DDgZYLrHggT-19" vertex="1">
          <mxGeometry y="60" width="270" height="67" as="geometry" />
        </mxCell>
        <mxCell id="OLhQaKqy3DDgZYLrHggT-25" value="Location" style="swimlane;fontStyle=0;align=center;verticalAlign=top;childLayout=stackLayout;horizontal=1;startSize=26;horizontalStack=0;resizeParent=1;resizeLast=0;collapsible=1;marginBottom=0;rounded=0;shadow=0;strokeWidth=1;" parent="WIyWlLk6GJQsqaUBKTNV-1" vertex="1">
          <mxGeometry x="760" y="375" width="270" height="132" as="geometry">
            <mxRectangle x="230" y="140" width="160" height="26" as="alternateBounds" />
          </mxGeometry>
        </mxCell>
        <mxCell id="OLhQaKqy3DDgZYLrHggT-26" value="- name: String" style="text;align=left;verticalAlign=top;spacingLeft=4;spacingRight=4;overflow=hidden;rotatable=0;points=[[0,0.5],[1,0.5]];portConstraint=eastwest;" parent="OLhQaKqy3DDgZYLrHggT-25" vertex="1">
          <mxGeometry y="26" width="270" height="26" as="geometry" />
        </mxCell>
        <mxCell id="OLhQaKqy3DDgZYLrHggT-29" value="" style="line;html=1;strokeWidth=1;align=left;verticalAlign=middle;spacingTop=-1;spacingLeft=3;spacingRight=3;rotatable=0;labelPosition=right;points=[];portConstraint=eastwest;" parent="OLhQaKqy3DDgZYLrHggT-25" vertex="1">
          <mxGeometry y="52" width="270" height="8" as="geometry" />
        </mxCell>
        <mxCell id="OLhQaKqy3DDgZYLrHggT-30" value="+ getLocation()&#xa;&#xa;+ setLocation()&#xa;    " style="text;align=left;verticalAlign=top;spacingLeft=4;spacingRight=4;overflow=hidden;rotatable=0;points=[[0,0.5],[1,0.5]];portConstraint=eastwest;" parent="OLhQaKqy3DDgZYLrHggT-25" vertex="1">
          <mxGeometry y="60" width="270" height="71" as="geometry" />
        </mxCell>
        <mxCell id="OLhQaKqy3DDgZYLrHggT-31" value="" style="triangle;whiteSpace=wrap;html=1;" parent="WIyWlLk6GJQsqaUBKTNV-1" vertex="1">
          <mxGeometry x="294" y="386" width="20" height="41" as="geometry" />
        </mxCell>
        <mxCell id="OLhQaKqy3DDgZYLrHggT-38" value="" style="endArrow=none;html=1;rounded=0;entryX=0;entryY=0.5;entryDx=0;entryDy=0;" parent="WIyWlLk6GJQsqaUBKTNV-1" target="OLhQaKqy3DDgZYLrHggT-31" edge="1">
          <mxGeometry width="50" height="50" relative="1" as="geometry">
            <mxPoint x="163" y="404" as="sourcePoint" />
            <mxPoint x="216" y="363.5" as="targetPoint" />
          </mxGeometry>
        </mxCell>
        <mxCell id="OLhQaKqy3DDgZYLrHggT-39" value="" style="rhombus;whiteSpace=wrap;html=1;" parent="WIyWlLk6GJQsqaUBKTNV-1" vertex="1">
          <mxGeometry x="432" y="261" width="24" height="24" as="geometry" />
        </mxCell>
        <mxCell id="OLhQaKqy3DDgZYLrHggT-40" value="" style="rhombus;whiteSpace=wrap;html=1;" parent="WIyWlLk6GJQsqaUBKTNV-1" vertex="1">
          <mxGeometry x="579" y="84" width="24" height="24" as="geometry" />
        </mxCell>
        <mxCell id="OLhQaKqy3DDgZYLrHggT-41" value="" style="rhombus;whiteSpace=wrap;html=1;" parent="WIyWlLk6GJQsqaUBKTNV-1" vertex="1">
          <mxGeometry x="581" y="-12" width="24" height="24" as="geometry" />
        </mxCell>
        <mxCell id="OLhQaKqy3DDgZYLrHggT-42" value="" style="endArrow=none;html=1;rounded=0;exitX=0.474;exitY=0.062;exitDx=0;exitDy=0;exitPerimeter=0;" parent="WIyWlLk6GJQsqaUBKTNV-1" source="OLhQaKqy3DDgZYLrHggT-0" edge="1">
          <mxGeometry width="50" height="50" relative="1" as="geometry">
            <mxPoint x="394" y="333" as="sourcePoint" />
            <mxPoint x="444" y="283" as="targetPoint" />
          </mxGeometry>
        </mxCell>
        <mxCell id="OLhQaKqy3DDgZYLrHggT-44" value="" style="endArrow=none;html=1;rounded=0;exitX=1;exitY=0.5;exitDx=0;exitDy=0;entryX=0.004;entryY=-0.065;entryDx=0;entryDy=0;entryPerimeter=0;" parent="WIyWlLk6GJQsqaUBKTNV-1" source="OLhQaKqy3DDgZYLrHggT-40" target="OLhQaKqy3DDgZYLrHggT-24" edge="1">
          <mxGeometry width="50" height="50" relative="1" as="geometry">
            <mxPoint x="477" y="249" as="sourcePoint" />
            <mxPoint x="647" y="82" as="targetPoint" />
          </mxGeometry>
        </mxCell>
        <mxCell id="OLhQaKqy3DDgZYLrHggT-45" value="" style="endArrow=none;html=1;rounded=0;entryX=0.522;entryY=0.991;entryDx=0;entryDy=0;entryPerimeter=0;exitX=0.5;exitY=1;exitDx=0;exitDy=0;" parent="WIyWlLk6GJQsqaUBKTNV-1" edge="1">
          <mxGeometry width="50" height="50" relative="1" as="geometry">
            <mxPoint x="32" y="508.6400000000002" as="sourcePoint" />
            <mxPoint x="903.94" y="507.0010000000001" as="targetPoint" />
            <Array as="points">
              <mxPoint x="32" y="605" />
              <mxPoint x="904" y="611.64" />
            </Array>
          </mxGeometry>
        </mxCell>
        <mxCell id="OLhQaKqy3DDgZYLrHggT-46" value="1 {unique}" style="text;html=1;strokeColor=none;fillColor=none;align=center;verticalAlign=middle;whiteSpace=wrap;rounded=0;" parent="WIyWlLk6GJQsqaUBKTNV-1" vertex="1">
          <mxGeometry x="37" y="517" width="60" height="30" as="geometry" />
        </mxCell>
        <mxCell id="OLhQaKqy3DDgZYLrHggT-48" value="1 {unique}" style="text;html=1;strokeColor=none;fillColor=none;align=center;verticalAlign=middle;whiteSpace=wrap;rounded=0;" parent="WIyWlLk6GJQsqaUBKTNV-1" vertex="1">
          <mxGeometry x="836" y="517" width="60" height="30" as="geometry" />
        </mxCell>
        <mxCell id="OLhQaKqy3DDgZYLrHggT-49" value="" style="endArrow=none;html=1;rounded=0;entryX=-0.003;entryY=0.251;entryDx=0;entryDy=0;entryPerimeter=0;" parent="WIyWlLk6GJQsqaUBKTNV-1" target="OLhQaKqy3DDgZYLrHggT-30" edge="1">
          <mxGeometry width="50" height="50" relative="1" as="geometry">
            <mxPoint x="586" y="453" as="sourcePoint" />
            <mxPoint x="636" y="403" as="targetPoint" />
          </mxGeometry>
        </mxCell>
        <mxCell id="OLhQaKqy3DDgZYLrHggT-50" value="has" style="text;html=1;strokeColor=none;fillColor=none;align=center;verticalAlign=middle;whiteSpace=wrap;rounded=0;" parent="WIyWlLk6GJQsqaUBKTNV-1" vertex="1">
          <mxGeometry x="421" y="580" width="60" height="30" as="geometry" />
        </mxCell>
        <mxCell id="OLhQaKqy3DDgZYLrHggT-51" value="" style="endArrow=none;html=1;rounded=0;entryX=0.527;entryY=1.01;entryDx=0;entryDy=0;entryPerimeter=0;" parent="WIyWlLk6GJQsqaUBKTNV-1" edge="1">
          <mxGeometry width="50" height="50" relative="1" as="geometry">
            <mxPoint x="586" y="378" as="sourcePoint" />
            <mxPoint x="886.29" y="174.66999999999985" as="targetPoint" />
          </mxGeometry>
        </mxCell>
        <mxCell id="OLhQaKqy3DDgZYLrHggT-52" value="1" style="text;html=1;strokeColor=none;fillColor=none;align=center;verticalAlign=middle;whiteSpace=wrap;rounded=0;" parent="WIyWlLk6GJQsqaUBKTNV-1" vertex="1">
          <mxGeometry x="561" y="348" width="60" height="30" as="geometry" />
        </mxCell>
        <mxCell id="OLhQaKqy3DDgZYLrHggT-54" value="reads" style="text;html=1;strokeColor=none;fillColor=none;align=center;verticalAlign=middle;whiteSpace=wrap;rounded=0;" parent="WIyWlLk6GJQsqaUBKTNV-1" vertex="1">
          <mxGeometry x="528" y="459" width="60" height="30" as="geometry" />
        </mxCell>
        <mxCell id="OLhQaKqy3DDgZYLrHggT-55" value="1" style="text;html=1;strokeColor=none;fillColor=none;align=center;verticalAlign=middle;whiteSpace=wrap;rounded=0;" parent="WIyWlLk6GJQsqaUBKTNV-1" vertex="1">
          <mxGeometry x="822" y="176" width="60" height="30" as="geometry" />
        </mxCell>
        <mxCell id="OLhQaKqy3DDgZYLrHggT-57" value="{sensor that is not deployed must not&lt;br&gt;&amp;nbsp;have a location}" style="shape=note;whiteSpace=wrap;html=1;backgroundOutline=1;darkOpacity=0.05;" parent="WIyWlLk6GJQsqaUBKTNV-1" vertex="1">
          <mxGeometry x="847" y="255" width="280" height="60" as="geometry" />
        </mxCell>
        <mxCell id="OLhQaKqy3DDgZYLrHggT-59" value="" style="endArrow=none;html=1;rounded=0;entryX=0.984;entryY=0.215;entryDx=0;entryDy=0;entryPerimeter=0;" parent="WIyWlLk6GJQsqaUBKTNV-1" target="OLhQaKqy3DDgZYLrHggT-30" edge="1">
          <mxGeometry width="50" height="50" relative="1" as="geometry">
            <mxPoint x="605" y="2" as="sourcePoint" />
            <mxPoint x="1154" y="471" as="targetPoint" />
            <Array as="points">
              <mxPoint x="1177" y="2" />
              <mxPoint x="1177" y="450" />
            </Array>
          </mxGeometry>
        </mxCell>
        <mxCell id="OLhQaKqy3DDgZYLrHggT-60" value="1" style="text;html=1;strokeColor=none;fillColor=none;align=center;verticalAlign=middle;whiteSpace=wrap;rounded=0;" parent="WIyWlLk6GJQsqaUBKTNV-1" vertex="1">
          <mxGeometry x="583" y="68" width="60" height="30" as="geometry" />
        </mxCell>
        <mxCell id="OLhQaKqy3DDgZYLrHggT-61" value="1" style="text;html=1;strokeColor=none;fillColor=none;align=center;verticalAlign=middle;whiteSpace=wrap;rounded=0;" parent="WIyWlLk6GJQsqaUBKTNV-1" vertex="1">
          <mxGeometry x="583" y="-38" width="60" height="30" as="geometry" />
        </mxCell>
        <mxCell id="OLhQaKqy3DDgZYLrHggT-62" value="" style="endArrow=none;dashed=1;html=1;rounded=0;" parent="WIyWlLk6GJQsqaUBKTNV-1" edge="1">
          <mxGeometry width="50" height="50" relative="1" as="geometry">
            <mxPoint x="655" y="451" as="sourcePoint" />
            <mxPoint x="845" y="283" as="targetPoint" />
          </mxGeometry>
        </mxCell>
        <mxCell id="OLhQaKqy3DDgZYLrHggT-63" value="&lt;font style=&quot;font-size: 18px;&quot;&gt;*&lt;/font&gt;" style="text;html=1;strokeColor=none;fillColor=none;align=center;verticalAlign=middle;whiteSpace=wrap;rounded=0;" parent="WIyWlLk6GJQsqaUBKTNV-1" vertex="1">
          <mxGeometry x="574" y="424" width="60" height="30" as="geometry" />
        </mxCell>
        <mxCell id="OLhQaKqy3DDgZYLrHggT-64" value="0" style="text;html=1;strokeColor=none;fillColor=none;align=center;verticalAlign=middle;whiteSpace=wrap;rounded=0;" parent="WIyWlLk6GJQsqaUBKTNV-1" vertex="1">
          <mxGeometry x="708" y="424" width="60" height="30" as="geometry" />
        </mxCell>
        <mxCell id="OLhQaKqy3DDgZYLrHggT-66" value="1" style="text;html=1;strokeColor=none;fillColor=none;align=center;verticalAlign=middle;whiteSpace=wrap;rounded=0;" parent="WIyWlLk6GJQsqaUBKTNV-1" vertex="1">
          <mxGeometry x="429" y="274" width="60" height="30" as="geometry" />
        </mxCell>
        <mxCell id="OLhQaKqy3DDgZYLrHggT-67" value="&lt;font style=&quot;font-size: 18px;&quot;&gt;*&lt;/font&gt;" style="text;html=1;strokeColor=none;fillColor=none;align=center;verticalAlign=middle;whiteSpace=wrap;rounded=0;" parent="WIyWlLk6GJQsqaUBKTNV-1" vertex="1">
          <mxGeometry x="425" y="348" width="60" height="30" as="geometry" />
        </mxCell>
        <mxCell id="OLhQaKqy3DDgZYLrHggT-68" value="&lt;font style=&quot;font-size: 18px;&quot;&gt;*&lt;/font&gt;" style="text;html=1;strokeColor=none;fillColor=none;align=center;verticalAlign=middle;whiteSpace=wrap;rounded=0;" parent="WIyWlLk6GJQsqaUBKTNV-1" vertex="1">
          <mxGeometry x="700" y="75" width="60" height="30" as="geometry" />
        </mxCell>
        <mxCell id="OLhQaKqy3DDgZYLrHggT-69" value="&lt;font style=&quot;font-size: 18px;&quot;&gt;*&lt;/font&gt;" style="text;html=1;strokeColor=none;fillColor=none;align=center;verticalAlign=middle;whiteSpace=wrap;rounded=0;" parent="WIyWlLk6GJQsqaUBKTNV-1" vertex="1">
          <mxGeometry x="1011" y="427" width="60" height="30" as="geometry" />
        </mxCell>
        <mxCell id="OLhQaKqy3DDgZYLrHggT-70" value="reads" style="text;html=1;strokeColor=none;fillColor=none;align=center;verticalAlign=middle;whiteSpace=wrap;rounded=0;" parent="WIyWlLk6GJQsqaUBKTNV-1" vertex="1">
          <mxGeometry x="687" y="247" width="60" height="30" as="geometry" />
        </mxCell>
      </root>
    </mxGraphModel>
  </diagram>
  <diagram id="0a9zlLIR4-wh_-yEsvdv" name="updated class diagram">
    <mxGraphModel dx="2605" dy="1947" grid="0" gridSize="10" guides="1" tooltips="1" connect="1" arrows="1" fold="1" page="0" pageScale="1" pageWidth="850" pageHeight="1100" math="0" shadow="0">
      <root>
        <mxCell id="0" />
        <mxCell id="1" parent="0" />
        <mxCell id="eYfkYaBOg4g8KTe1unPa-1" value="&lt;p style=&quot;margin:0px;margin-top:4px;text-align:center;&quot;&gt;&lt;b&gt;Registry&lt;/b&gt;&lt;/p&gt;&lt;hr size=&quot;1&quot;&gt;&lt;div style=&quot;height:2px;&quot;&gt;&lt;/div&gt;" style="verticalAlign=top;align=left;overflow=fill;fontSize=12;fontFamily=Helvetica;html=1;whiteSpace=wrap;" parent="1" vertex="1">
          <mxGeometry x="343" y="53" width="180" height="119" as="geometry" />
        </mxCell>
        <mxCell id="eYfkYaBOg4g8KTe1unPa-2" value="&lt;p style=&quot;margin:0px;margin-top:4px;text-align:center;&quot;&gt;&lt;b&gt;Temperature&lt;/b&gt;&lt;/p&gt;&lt;hr size=&quot;1&quot;&gt;&lt;div style=&quot;height:2px;&quot;&gt;&lt;/div&gt;" style="verticalAlign=top;align=left;overflow=fill;fontSize=12;fontFamily=Helvetica;html=1;whiteSpace=wrap;" parent="1" vertex="1">
          <mxGeometry x="671" y="272" width="140" height="121" as="geometry" />
        </mxCell>
        <mxCell id="eYfkYaBOg4g8KTe1unPa-3" value="&lt;p style=&quot;margin:0px;margin-top:4px;text-align:center;&quot;&gt;&lt;b&gt;Sensor&lt;/b&gt;&lt;/p&gt;&lt;hr size=&quot;1&quot;&gt;&lt;div style=&quot;height:2px;&quot;&gt;&amp;nbsp;&lt;/div&gt;&lt;div style=&quot;height:2px;&quot;&gt;&lt;br&gt;&lt;/div&gt;&lt;div style=&quot;height:2px;&quot;&gt;&lt;br&gt;&lt;/div&gt;&lt;div style=&quot;height:2px;&quot;&gt;&lt;br&gt;&lt;/div&gt;" style="verticalAlign=top;align=left;overflow=fill;fontSize=12;fontFamily=Helvetica;html=1;whiteSpace=wrap;" parent="1" vertex="1">
          <mxGeometry x="364" y="270" width="140" height="137" as="geometry" />
        </mxCell>
        <mxCell id="eYfkYaBOg4g8KTe1unPa-4" value="&lt;p style=&quot;margin:0px;margin-top:4px;text-align:center;&quot;&gt;&lt;b&gt;Sensor_list&lt;/b&gt;&lt;/p&gt;&lt;hr size=&quot;1&quot;&gt;&lt;div style=&quot;height:2px;&quot;&gt;&lt;/div&gt;" style="verticalAlign=top;align=left;overflow=fill;fontSize=12;fontFamily=Helvetica;html=1;whiteSpace=wrap;" parent="1" vertex="1">
          <mxGeometry x="337.88" y="534.5" width="192.25" height="144.5" as="geometry" />
        </mxCell>
        <mxCell id="eYfkYaBOg4g8KTe1unPa-5" value="&lt;p style=&quot;margin:0px;margin-top:4px;text-align:center;&quot;&gt;&lt;b&gt;Location&lt;/b&gt;&lt;/p&gt;&lt;hr size=&quot;1&quot;&gt;&lt;div style=&quot;height:2px;&quot;&gt;&lt;/div&gt;" style="verticalAlign=top;align=left;overflow=fill;fontSize=12;fontFamily=Helvetica;html=1;whiteSpace=wrap;" parent="1" vertex="1">
          <mxGeometry x="19" y="272" width="140" height="138" as="geometry" />
        </mxCell>
        <mxCell id="eYfkYaBOg4g8KTe1unPa-6" value="&lt;p style=&quot;margin:0px;margin-top:4px;text-align:center;&quot;&gt;&lt;b&gt;Location_list&lt;/b&gt;&lt;/p&gt;&lt;hr size=&quot;1&quot;&gt;&lt;div style=&quot;height:2px;&quot;&gt;&lt;/div&gt;" style="verticalAlign=top;align=left;overflow=fill;fontSize=12;fontFamily=Helvetica;html=1;whiteSpace=wrap;" parent="1" vertex="1">
          <mxGeometry x="-311" y="269.87" width="186" height="142.25" as="geometry" />
        </mxCell>
        <mxCell id="eYfkYaBOg4g8KTe1unPa-7" value="&lt;p style=&quot;margin:0px;margin-top:4px;text-align:center;&quot;&gt;&lt;b&gt;Temperature_list&lt;/b&gt;&lt;/p&gt;&lt;hr size=&quot;1&quot;&gt;&lt;div style=&quot;height:2px;&quot;&gt;&lt;/div&gt;" style="verticalAlign=top;align=left;overflow=fill;fontSize=12;fontFamily=Helvetica;html=1;whiteSpace=wrap;" parent="1" vertex="1">
          <mxGeometry x="956" y="270.75" width="232" height="125.5" as="geometry" />
        </mxCell>
        <mxCell id="eYfkYaBOg4g8KTe1unPa-8" value="&lt;p style=&quot;margin:0px;margin-top:4px;text-align:center;&quot;&gt;&lt;b&gt;Map&lt;/b&gt;&lt;/p&gt;&lt;hr size=&quot;1&quot;&gt;&lt;div style=&quot;height:2px;&quot;&gt;&lt;/div&gt;" style="verticalAlign=top;align=left;overflow=fill;fontSize=12;fontFamily=Helvetica;html=1;whiteSpace=wrap;" parent="1" vertex="1">
          <mxGeometry x="19" y="509" width="179" height="130" as="geometry" />
        </mxCell>
        <mxCell id="eYfkYaBOg4g8KTe1unPa-9" value="&lt;p style=&quot;margin:0px;margin-top:4px;text-align:center;&quot;&gt;&lt;b&gt;Map_item&lt;/b&gt;&lt;/p&gt;&lt;hr size=&quot;1&quot;&gt;&lt;div style=&quot;height:2px;&quot;&gt;&lt;/div&gt;" style="verticalAlign=top;align=left;overflow=fill;fontSize=12;fontFamily=Helvetica;html=1;whiteSpace=wrap;" parent="1" vertex="1">
          <mxGeometry x="-5.5" y="813" width="233" height="196" as="geometry" />
        </mxCell>
        <mxCell id="eYfkYaBOg4g8KTe1unPa-10" value="&lt;p style=&quot;margin:0px;margin-top:4px;text-align:center;&quot;&gt;&lt;b&gt;Read&lt;/b&gt;&lt;/p&gt;&lt;hr size=&quot;1&quot;&gt;&lt;div style=&quot;height:2px;&quot;&gt;&lt;/div&gt;" style="verticalAlign=top;align=left;overflow=fill;fontSize=12;fontFamily=Helvetica;html=1;whiteSpace=wrap;" parent="1" vertex="1">
          <mxGeometry x="664" y="509" width="177" height="136" as="geometry" />
        </mxCell>
        <mxCell id="eYfkYaBOg4g8KTe1unPa-11" value="&lt;p style=&quot;margin:0px;margin-top:4px;text-align:center;&quot;&gt;&lt;b&gt;Read_item&lt;/b&gt;&lt;/p&gt;&lt;hr size=&quot;1&quot;&gt;&lt;div style=&quot;height:2px;&quot;&gt;&lt;/div&gt;" style="verticalAlign=top;align=left;overflow=fill;fontSize=12;fontFamily=Helvetica;html=1;whiteSpace=wrap;" parent="1" vertex="1">
          <mxGeometry x="629" y="798" width="247" height="140" as="geometry" />
        </mxCell>
        <mxCell id="eYfkYaBOg4g8KTe1unPa-12" value="" style="endArrow=diamondThin;endFill=0;endSize=24;html=1;rounded=0;exitX=0.5;exitY=1;exitDx=0;exitDy=0;entryX=0.5;entryY=0;entryDx=0;entryDy=0;" parent="1" source="eYfkYaBOg4g8KTe1unPa-3" target="eYfkYaBOg4g8KTe1unPa-4" edge="1">
          <mxGeometry width="160" relative="1" as="geometry">
            <mxPoint x="344" y="387" as="sourcePoint" />
            <mxPoint x="504" y="387" as="targetPoint" />
          </mxGeometry>
        </mxCell>
        <mxCell id="eYfkYaBOg4g8KTe1unPa-13" value="" style="endArrow=diamondThin;endFill=0;endSize=24;html=1;rounded=0;exitX=0.5;exitY=1;exitDx=0;exitDy=0;entryX=0.5;entryY=0;entryDx=0;entryDy=0;" parent="1" source="eYfkYaBOg4g8KTe1unPa-10" target="eYfkYaBOg4g8KTe1unPa-11" edge="1">
          <mxGeometry width="160" relative="1" as="geometry">
            <mxPoint x="701" y="567" as="sourcePoint" />
            <mxPoint x="861" y="567" as="targetPoint" />
          </mxGeometry>
        </mxCell>
        <mxCell id="eYfkYaBOg4g8KTe1unPa-14" value="" style="endArrow=diamondThin;endFill=0;endSize=24;html=1;rounded=0;exitX=0.5;exitY=1;exitDx=0;exitDy=0;entryX=0.5;entryY=0;entryDx=0;entryDy=0;" parent="1" source="eYfkYaBOg4g8KTe1unPa-8" target="eYfkYaBOg4g8KTe1unPa-9" edge="1">
          <mxGeometry width="160" relative="1" as="geometry">
            <mxPoint x="81" y="549" as="sourcePoint" />
            <mxPoint x="241" y="549" as="targetPoint" />
          </mxGeometry>
        </mxCell>
        <mxCell id="eYfkYaBOg4g8KTe1unPa-15" value="" style="endArrow=diamondThin;endFill=0;endSize=24;html=1;rounded=0;exitX=0;exitY=0.5;exitDx=0;exitDy=0;entryX=1;entryY=0.5;entryDx=0;entryDy=0;" parent="1" source="eYfkYaBOg4g8KTe1unPa-5" target="eYfkYaBOg4g8KTe1unPa-6" edge="1">
          <mxGeometry width="160" relative="1" as="geometry">
            <mxPoint x="-78" y="384" as="sourcePoint" />
            <mxPoint x="82" y="384" as="targetPoint" />
          </mxGeometry>
        </mxCell>
        <mxCell id="eYfkYaBOg4g8KTe1unPa-16" value="" style="endArrow=diamondThin;endFill=0;endSize=24;html=1;rounded=0;exitX=1;exitY=0.5;exitDx=0;exitDy=0;entryX=0;entryY=0.5;entryDx=0;entryDy=0;" parent="1" source="eYfkYaBOg4g8KTe1unPa-2" target="eYfkYaBOg4g8KTe1unPa-7" edge="1">
          <mxGeometry width="160" relative="1" as="geometry">
            <mxPoint x="834" y="426" as="sourcePoint" />
            <mxPoint x="994" y="426" as="targetPoint" />
          </mxGeometry>
        </mxCell>
        <mxCell id="eYfkYaBOg4g8KTe1unPa-17" value="" style="endArrow=none;html=1;edgeStyle=orthogonalEdgeStyle;rounded=0;exitX=0.5;exitY=1;exitDx=0;exitDy=0;entryX=0.5;entryY=0;entryDx=0;entryDy=0;" parent="1" source="eYfkYaBOg4g8KTe1unPa-1" target="eYfkYaBOg4g8KTe1unPa-3" edge="1">
          <mxGeometry relative="1" as="geometry">
            <mxPoint x="400" y="184" as="sourcePoint" />
            <mxPoint x="560" y="184" as="targetPoint" />
          </mxGeometry>
        </mxCell>
        <mxCell id="eYfkYaBOg4g8KTe1unPa-18" value="1" style="edgeLabel;resizable=0;html=1;align=left;verticalAlign=bottom;" parent="eYfkYaBOg4g8KTe1unPa-17" connectable="0" vertex="1">
          <mxGeometry x="-1" relative="1" as="geometry">
            <mxPoint x="3" y="27" as="offset" />
          </mxGeometry>
        </mxCell>
        <mxCell id="eYfkYaBOg4g8KTe1unPa-19" value="&lt;font style=&quot;font-size: 14px;&quot;&gt;*&lt;/font&gt;" style="edgeLabel;resizable=0;html=1;align=right;verticalAlign=bottom;" parent="eYfkYaBOg4g8KTe1unPa-17" connectable="0" vertex="1">
          <mxGeometry x="1" relative="1" as="geometry">
            <mxPoint x="10" y="-3" as="offset" />
          </mxGeometry>
        </mxCell>
        <mxCell id="eYfkYaBOg4g8KTe1unPa-20" value="" style="endArrow=none;html=1;edgeStyle=orthogonalEdgeStyle;rounded=0;exitX=1;exitY=0.5;exitDx=0;exitDy=0;entryX=0.5;entryY=0;entryDx=0;entryDy=0;" parent="1" source="eYfkYaBOg4g8KTe1unPa-1" target="eYfkYaBOg4g8KTe1unPa-2" edge="1">
          <mxGeometry relative="1" as="geometry">
            <mxPoint x="516" y="114" as="sourcePoint" />
            <mxPoint x="676" y="114" as="targetPoint" />
          </mxGeometry>
        </mxCell>
        <mxCell id="eYfkYaBOg4g8KTe1unPa-21" value="1" style="edgeLabel;resizable=0;html=1;align=left;verticalAlign=bottom;" parent="eYfkYaBOg4g8KTe1unPa-20" connectable="0" vertex="1">
          <mxGeometry x="-1" relative="1" as="geometry">
            <mxPoint x="177" y="-570" as="offset" />
          </mxGeometry>
        </mxCell>
        <mxCell id="eYfkYaBOg4g8KTe1unPa-22" value="&lt;font style=&quot;font-size: 14px;&quot;&gt;*&lt;/font&gt;" style="edgeLabel;resizable=0;html=1;align=right;verticalAlign=bottom;" parent="eYfkYaBOg4g8KTe1unPa-20" connectable="0" vertex="1">
          <mxGeometry x="1" relative="1" as="geometry">
            <mxPoint x="-6" y="-3" as="offset" />
          </mxGeometry>
        </mxCell>
        <mxCell id="eYfkYaBOg4g8KTe1unPa-23" value="" style="endArrow=none;html=1;edgeStyle=orthogonalEdgeStyle;rounded=0;exitX=0;exitY=0.5;exitDx=0;exitDy=0;entryX=0.5;entryY=0;entryDx=0;entryDy=0;" parent="1" source="eYfkYaBOg4g8KTe1unPa-1" target="eYfkYaBOg4g8KTe1unPa-5" edge="1">
          <mxGeometry relative="1" as="geometry">
            <mxPoint x="156" y="193" as="sourcePoint" />
            <mxPoint x="316" y="193" as="targetPoint" />
          </mxGeometry>
        </mxCell>
        <mxCell id="eYfkYaBOg4g8KTe1unPa-24" value="&lt;font style=&quot;font-size: 14px;&quot;&gt;*&lt;/font&gt;" style="edgeLabel;resizable=0;html=1;align=right;verticalAlign=bottom;" parent="eYfkYaBOg4g8KTe1unPa-23" connectable="0" vertex="1">
          <mxGeometry x="1" relative="1" as="geometry">
            <mxPoint x="-4" y="-1" as="offset" />
          </mxGeometry>
        </mxCell>
        <mxCell id="eYfkYaBOg4g8KTe1unPa-25" value="" style="endArrow=none;html=1;edgeStyle=orthogonalEdgeStyle;rounded=0;entryX=0;entryY=0.5;entryDx=0;entryDy=0;exitX=1;exitY=0.5;exitDx=0;exitDy=0;" parent="1" source="eYfkYaBOg4g8KTe1unPa-5" target="eYfkYaBOg4g8KTe1unPa-3" edge="1">
          <mxGeometry relative="1" as="geometry">
            <mxPoint x="184" y="315" as="sourcePoint" />
            <mxPoint x="344" y="315" as="targetPoint" />
          </mxGeometry>
        </mxCell>
        <mxCell id="eYfkYaBOg4g8KTe1unPa-26" value="&lt;font style=&quot;font-size: 14px;&quot;&gt;*&lt;/font&gt;" style="edgeLabel;resizable=0;html=1;align=left;verticalAlign=bottom;" parent="eYfkYaBOg4g8KTe1unPa-25" connectable="0" vertex="1">
          <mxGeometry x="-1" relative="1" as="geometry">
            <mxPoint x="4" y="1" as="offset" />
          </mxGeometry>
        </mxCell>
        <mxCell id="eYfkYaBOg4g8KTe1unPa-27" value="&lt;font style=&quot;font-size: 14px;&quot;&gt;*&lt;/font&gt;" style="edgeLabel;resizable=0;html=1;align=right;verticalAlign=bottom;" parent="eYfkYaBOg4g8KTe1unPa-25" connectable="0" vertex="1">
          <mxGeometry x="1" relative="1" as="geometry">
            <mxPoint x="-5" as="offset" />
          </mxGeometry>
        </mxCell>
        <mxCell id="eYfkYaBOg4g8KTe1unPa-28" value="" style="endArrow=none;dashed=1;html=1;rounded=0;exitX=0.5;exitY=0;exitDx=0;exitDy=0;" parent="1" source="eYfkYaBOg4g8KTe1unPa-8" edge="1">
          <mxGeometry width="50" height="50" relative="1" as="geometry">
            <mxPoint x="159" y="435" as="sourcePoint" />
            <mxPoint x="251" y="339" as="targetPoint" />
          </mxGeometry>
        </mxCell>
        <mxCell id="eYfkYaBOg4g8KTe1unPa-29" value="" style="endArrow=none;html=1;edgeStyle=orthogonalEdgeStyle;rounded=0;exitX=1;exitY=0.5;exitDx=0;exitDy=0;entryX=0;entryY=0.5;entryDx=0;entryDy=0;" parent="1" source="eYfkYaBOg4g8KTe1unPa-3" target="eYfkYaBOg4g8KTe1unPa-2" edge="1">
          <mxGeometry relative="1" as="geometry">
            <mxPoint x="515" y="346" as="sourcePoint" />
            <mxPoint x="625" y="327" as="targetPoint" />
          </mxGeometry>
        </mxCell>
        <mxCell id="eYfkYaBOg4g8KTe1unPa-30" value="&lt;font style=&quot;font-size: 14px;&quot;&gt;*&lt;/font&gt;" style="edgeLabel;resizable=0;html=1;align=left;verticalAlign=bottom;" parent="eYfkYaBOg4g8KTe1unPa-29" connectable="0" vertex="1">
          <mxGeometry x="-1" relative="1" as="geometry">
            <mxPoint x="5" y="-2" as="offset" />
          </mxGeometry>
        </mxCell>
        <mxCell id="eYfkYaBOg4g8KTe1unPa-31" value="&lt;font style=&quot;font-size: 14px;&quot;&gt;*&lt;/font&gt;" style="edgeLabel;resizable=0;html=1;align=right;verticalAlign=bottom;" parent="eYfkYaBOg4g8KTe1unPa-29" connectable="0" vertex="1">
          <mxGeometry x="1" relative="1" as="geometry">
            <mxPoint x="-9" y="-4" as="offset" />
          </mxGeometry>
        </mxCell>
        <mxCell id="eYfkYaBOg4g8KTe1unPa-32" value="" style="endArrow=none;dashed=1;html=1;rounded=0;exitX=0.5;exitY=0;exitDx=0;exitDy=0;" parent="1" source="eYfkYaBOg4g8KTe1unPa-10" edge="1">
          <mxGeometry width="50" height="50" relative="1" as="geometry">
            <mxPoint x="540" y="351" as="sourcePoint" />
            <mxPoint x="580" y="338" as="targetPoint" />
          </mxGeometry>
        </mxCell>
        <mxCell id="eYfkYaBOg4g8KTe1unPa-33" value="contains" style="text;html=1;strokeColor=none;fillColor=none;align=center;verticalAlign=middle;whiteSpace=wrap;rounded=0;" parent="1" vertex="1">
          <mxGeometry x="181" y="90" width="60" height="26" as="geometry" />
        </mxCell>
        <mxCell id="eYfkYaBOg4g8KTe1unPa-34" value="contains" style="text;html=1;strokeColor=none;fillColor=none;align=center;verticalAlign=middle;whiteSpace=wrap;rounded=0;" parent="1" vertex="1">
          <mxGeometry x="586" y="88" width="60" height="30" as="geometry" />
        </mxCell>
        <mxCell id="eYfkYaBOg4g8KTe1unPa-35" value="1" style="text;html=1;strokeColor=none;fillColor=none;align=center;verticalAlign=middle;whiteSpace=wrap;rounded=0;" parent="1" vertex="1">
          <mxGeometry x="519" y="82" width="29" height="30" as="geometry" />
        </mxCell>
        <mxCell id="eYfkYaBOg4g8KTe1unPa-36" value="1" style="text;html=1;strokeColor=none;fillColor=none;align=center;verticalAlign=middle;whiteSpace=wrap;rounded=0;" parent="1" vertex="1">
          <mxGeometry x="308.88" y="82" width="29" height="30" as="geometry" />
        </mxCell>
        <mxCell id="eYfkYaBOg4g8KTe1unPa-37" value="1" style="text;html=1;strokeColor=none;fillColor=none;align=center;verticalAlign=middle;whiteSpace=wrap;rounded=0;" parent="1" vertex="1">
          <mxGeometry x="-95" y="315" width="14" height="15" as="geometry" />
        </mxCell>
        <mxCell id="eYfkYaBOg4g8KTe1unPa-38" value="&lt;font style=&quot;font-size: 14px;&quot;&gt;*&lt;/font&gt;" style="text;html=1;strokeColor=none;fillColor=none;align=center;verticalAlign=middle;whiteSpace=wrap;rounded=0;" parent="1" vertex="1">
          <mxGeometry x="-5.5" y="318" width="19" height="12" as="geometry" />
        </mxCell>
        <mxCell id="eYfkYaBOg4g8KTe1unPa-39" value="1" style="text;html=1;strokeColor=none;fillColor=none;align=center;verticalAlign=middle;whiteSpace=wrap;rounded=0;" parent="1" vertex="1">
          <mxGeometry x="915" y="310" width="16" height="18" as="geometry" />
        </mxCell>
        <mxCell id="eYfkYaBOg4g8KTe1unPa-40" value="&lt;font style=&quot;font-size: 14px;&quot;&gt;*&lt;/font&gt;" style="text;html=1;strokeColor=none;fillColor=none;align=center;verticalAlign=middle;whiteSpace=wrap;rounded=0;" parent="1" vertex="1">
          <mxGeometry x="812" y="315" width="29" height="13" as="geometry" />
        </mxCell>
        <mxCell id="eYfkYaBOg4g8KTe1unPa-41" value="1" style="text;html=1;strokeColor=none;fillColor=none;align=center;verticalAlign=middle;whiteSpace=wrap;rounded=0;" parent="1" vertex="1">
          <mxGeometry x="440" y="486" width="15" height="30" as="geometry" />
        </mxCell>
        <mxCell id="eYfkYaBOg4g8KTe1unPa-42" value="&lt;font style=&quot;font-size: 14px;&quot;&gt;*&lt;/font&gt;" style="text;html=1;strokeColor=none;fillColor=none;align=center;verticalAlign=middle;whiteSpace=wrap;rounded=0;" parent="1" vertex="1">
          <mxGeometry x="444" y="407" width="15" height="30" as="geometry" />
        </mxCell>
        <mxCell id="eYfkYaBOg4g8KTe1unPa-43" value="1" style="text;html=1;strokeColor=none;fillColor=none;align=center;verticalAlign=middle;whiteSpace=wrap;rounded=0;" parent="1" vertex="1">
          <mxGeometry x="759" y="739" width="15" height="30" as="geometry" />
        </mxCell>
        <mxCell id="eYfkYaBOg4g8KTe1unPa-44" value="&lt;font style=&quot;font-size: 14px;&quot;&gt;*&lt;/font&gt;" style="text;html=1;strokeColor=none;fillColor=none;align=center;verticalAlign=middle;whiteSpace=wrap;rounded=0;" parent="1" vertex="1">
          <mxGeometry x="759" y="649" width="15" height="30" as="geometry" />
        </mxCell>
        <mxCell id="eYfkYaBOg4g8KTe1unPa-45" value="&lt;font style=&quot;font-size: 14px;&quot;&gt;*&lt;/font&gt;" style="text;html=1;strokeColor=none;fillColor=none;align=center;verticalAlign=middle;whiteSpace=wrap;rounded=0;" parent="1" vertex="1">
          <mxGeometry x="112" y="639" width="15" height="30" as="geometry" />
        </mxCell>
        <mxCell id="eYfkYaBOg4g8KTe1unPa-46" value="1" style="text;html=1;strokeColor=none;fillColor=none;align=center;verticalAlign=middle;whiteSpace=wrap;rounded=0;" parent="1" vertex="1">
          <mxGeometry x="112" y="755" width="15" height="30" as="geometry" />
        </mxCell>
        <mxCell id="eYfkYaBOg4g8KTe1unPa-47" value="contains" style="text;html=1;strokeColor=none;fillColor=none;align=center;verticalAlign=middle;whiteSpace=wrap;rounded=0;" parent="1" vertex="1">
          <mxGeometry x="433" y="212" width="60" height="18" as="geometry" />
        </mxCell>
        <mxCell id="QmOXRQ0NHFNa7s4A11VL-8" value="Sensor" style="swimlane;fontStyle=1;align=center;verticalAlign=top;childLayout=stackLayout;horizontal=1;startSize=26;horizontalStack=0;resizeParent=1;resizeParentMax=0;resizeLast=0;collapsible=1;marginBottom=0;whiteSpace=wrap;html=1;" parent="1" vertex="1">
          <mxGeometry x="364" y="270" width="140" height="69" as="geometry" />
        </mxCell>
        <mxCell id="QmOXRQ0NHFNa7s4A11VL-9" value="- deployed: Boolean&lt;br&gt;- sensorID: Integer" style="text;strokeColor=none;fillColor=none;align=left;verticalAlign=top;spacingLeft=4;spacingRight=4;overflow=hidden;rotatable=0;points=[[0,0.5],[1,0.5]];portConstraint=eastwest;whiteSpace=wrap;html=1;" parent="QmOXRQ0NHFNa7s4A11VL-8" vertex="1">
          <mxGeometry y="26" width="140" height="41" as="geometry" />
        </mxCell>
        <mxCell id="QmOXRQ0NHFNa7s4A11VL-10" value="" style="line;strokeWidth=1;fillColor=none;align=left;verticalAlign=middle;spacingTop=-1;spacingLeft=3;spacingRight=3;rotatable=0;labelPosition=right;points=[];portConstraint=eastwest;strokeColor=inherit;" parent="QmOXRQ0NHFNa7s4A11VL-8" vertex="1">
          <mxGeometry y="67" width="140" height="2" as="geometry" />
        </mxCell>
        <mxCell id="0zxX6a0WeC933indxJ3j-1" value="&lt;p style=&quot;margin:0px;margin-top:4px;text-align:center;&quot;&gt;&lt;b&gt;Location&lt;/b&gt;&lt;/p&gt;&lt;hr size=&quot;1&quot;&gt;&lt;p style=&quot;margin:0px;margin-left:4px;&quot;&gt;- name: String&lt;/p&gt;&lt;hr size=&quot;1&quot;&gt;&lt;p style=&quot;margin:0px;margin-left:4px;&quot;&gt;&lt;br&gt;&lt;/p&gt;" style="verticalAlign=top;align=left;overflow=fill;fontSize=12;fontFamily=Helvetica;html=1;whiteSpace=wrap;" parent="1" vertex="1">
          <mxGeometry x="19" y="272" width="140" height="138" as="geometry" />
        </mxCell>
        <mxCell id="0zxX6a0WeC933indxJ3j-3" value="&lt;p style=&quot;margin:0px;margin-top:4px;text-align:center;&quot;&gt;&lt;b&gt;Temperature&lt;/b&gt;&lt;/p&gt;&lt;hr size=&quot;1&quot;&gt;&lt;p style=&quot;margin:0px;margin-left:4px;&quot;&gt;- temperature: Double&lt;/p&gt;&lt;hr size=&quot;1&quot;&gt;&lt;p style=&quot;margin:0px;margin-left:4px;&quot;&gt;&lt;br&gt;&lt;/p&gt;" style="verticalAlign=top;align=left;overflow=fill;fontSize=12;fontFamily=Helvetica;html=1;whiteSpace=wrap;" parent="1" vertex="1">
          <mxGeometry x="671" y="272" width="141" height="122" as="geometry" />
        </mxCell>
        <mxCell id="_4V70SpZA36diVrUgcQ7-2" value="Sensor_list" style="swimlane;fontStyle=1;align=center;verticalAlign=top;childLayout=stackLayout;horizontal=1;startSize=26;horizontalStack=0;resizeParent=1;resizeParentMax=0;resizeLast=0;collapsible=1;marginBottom=0;whiteSpace=wrap;html=1;" parent="1" vertex="1">
          <mxGeometry x="337.88" y="534.5" width="192.12" height="144" as="geometry" />
        </mxCell>
        <mxCell id="_4V70SpZA36diVrUgcQ7-3" value="- sensors: ArrayList&amp;lt;Sensor&amp;gt;" style="text;strokeColor=none;fillColor=none;align=left;verticalAlign=top;spacingLeft=4;spacingRight=4;overflow=hidden;rotatable=0;points=[[0,0.5],[1,0.5]];portConstraint=eastwest;whiteSpace=wrap;html=1;" parent="_4V70SpZA36diVrUgcQ7-2" vertex="1">
          <mxGeometry y="26" width="192.12" height="26" as="geometry" />
        </mxCell>
        <mxCell id="_4V70SpZA36diVrUgcQ7-4" value="" style="line;strokeWidth=1;fillColor=none;align=left;verticalAlign=middle;spacingTop=-1;spacingLeft=3;spacingRight=3;rotatable=0;labelPosition=right;points=[];portConstraint=eastwest;strokeColor=inherit;" parent="_4V70SpZA36diVrUgcQ7-2" vertex="1">
          <mxGeometry y="52" width="192.12" height="8" as="geometry" />
        </mxCell>
        <mxCell id="_4V70SpZA36diVrUgcQ7-5" value="+ Sensor(deployed, sensorID): void&lt;br&gt;&lt;br&gt;+ add(Sensor): void" style="text;strokeColor=none;fillColor=none;align=left;verticalAlign=top;spacingLeft=4;spacingRight=4;overflow=hidden;rotatable=0;points=[[0,0.5],[1,0.5]];portConstraint=eastwest;whiteSpace=wrap;html=1;" parent="_4V70SpZA36diVrUgcQ7-2" vertex="1">
          <mxGeometry y="60" width="192.12" height="84" as="geometry" />
        </mxCell>
        <mxCell id="hO2jefIzzy3CfVgDUmfN-2" value="Map_item" style="swimlane;fontStyle=1;align=center;verticalAlign=top;childLayout=stackLayout;horizontal=1;startSize=26;horizontalStack=0;resizeParent=1;resizeParentMax=0;resizeLast=0;collapsible=1;marginBottom=0;whiteSpace=wrap;html=1;" parent="1" vertex="1">
          <mxGeometry x="19" y="509" width="179" height="130" as="geometry" />
        </mxCell>
        <mxCell id="hO2jefIzzy3CfVgDUmfN-3" value="- location: Location&lt;br&gt;- sensor: Sensor" style="text;strokeColor=none;fillColor=none;align=left;verticalAlign=top;spacingLeft=4;spacingRight=4;overflow=hidden;rotatable=0;points=[[0,0.5],[1,0.5]];portConstraint=eastwest;whiteSpace=wrap;html=1;" parent="hO2jefIzzy3CfVgDUmfN-2" vertex="1">
          <mxGeometry y="26" width="179" height="42" as="geometry" />
        </mxCell>
        <mxCell id="hO2jefIzzy3CfVgDUmfN-4" value="" style="line;strokeWidth=1;fillColor=none;align=left;verticalAlign=middle;spacingTop=-1;spacingLeft=3;spacingRight=3;rotatable=0;labelPosition=right;points=[];portConstraint=eastwest;strokeColor=inherit;" parent="hO2jefIzzy3CfVgDUmfN-2" vertex="1">
          <mxGeometry y="68" width="179" height="8" as="geometry" />
        </mxCell>
        <mxCell id="hO2jefIzzy3CfVgDUmfN-5" value="+ Map_item(sensor: Sensor, location: Location): void" style="text;strokeColor=none;fillColor=none;align=left;verticalAlign=top;spacingLeft=4;spacingRight=4;overflow=hidden;rotatable=0;points=[[0,0.5],[1,0.5]];portConstraint=eastwest;whiteSpace=wrap;html=1;" parent="hO2jefIzzy3CfVgDUmfN-2" vertex="1">
          <mxGeometry y="76" width="179" height="54" as="geometry" />
        </mxCell>
        <mxCell id="b63PvhiUQrb2BFvBqu0z-1" value="Read_item" style="swimlane;fontStyle=1;align=center;verticalAlign=top;childLayout=stackLayout;horizontal=1;startSize=26;horizontalStack=0;resizeParent=1;resizeParentMax=0;resizeLast=0;collapsible=1;marginBottom=0;whiteSpace=wrap;html=1;" parent="1" vertex="1">
          <mxGeometry x="664" y="508.5" width="177.5" height="137" as="geometry" />
        </mxCell>
        <mxCell id="b63PvhiUQrb2BFvBqu0z-2" value="- sensor: Sensor&lt;br&gt;- temp: Temperature" style="text;strokeColor=none;fillColor=none;align=left;verticalAlign=top;spacingLeft=4;spacingRight=4;overflow=hidden;rotatable=0;points=[[0,0.5],[1,0.5]];portConstraint=eastwest;whiteSpace=wrap;html=1;" parent="b63PvhiUQrb2BFvBqu0z-1" vertex="1">
          <mxGeometry y="26" width="177.5" height="42" as="geometry" />
        </mxCell>
        <mxCell id="b63PvhiUQrb2BFvBqu0z-3" value="" style="line;strokeWidth=1;fillColor=none;align=left;verticalAlign=middle;spacingTop=-1;spacingLeft=3;spacingRight=3;rotatable=0;labelPosition=right;points=[];portConstraint=eastwest;strokeColor=inherit;" parent="b63PvhiUQrb2BFvBqu0z-1" vertex="1">
          <mxGeometry y="68" width="177.5" height="8" as="geometry" />
        </mxCell>
        <mxCell id="b63PvhiUQrb2BFvBqu0z-4" value="+ Read_item(sensor: Sensor, temp: Temperature): void" style="text;strokeColor=none;fillColor=none;align=left;verticalAlign=top;spacingLeft=4;spacingRight=4;overflow=hidden;rotatable=0;points=[[0,0.5],[1,0.5]];portConstraint=eastwest;whiteSpace=wrap;html=1;" parent="b63PvhiUQrb2BFvBqu0z-1" vertex="1">
          <mxGeometry y="76" width="177.5" height="61" as="geometry" />
        </mxCell>
        <mxCell id="b63PvhiUQrb2BFvBqu0z-6" value="Location_list" style="swimlane;fontStyle=1;align=center;verticalAlign=top;childLayout=stackLayout;horizontal=1;startSize=26;horizontalStack=0;resizeParent=1;resizeParentMax=0;resizeLast=0;collapsible=1;marginBottom=0;whiteSpace=wrap;html=1;" parent="1" vertex="1">
          <mxGeometry x="-311" y="269.87" width="186" height="143" as="geometry" />
        </mxCell>
        <mxCell id="b63PvhiUQrb2BFvBqu0z-7" value="+ locations: ArrayList&amp;lt;Location&amp;gt;" style="text;strokeColor=none;fillColor=none;align=left;verticalAlign=top;spacingLeft=4;spacingRight=4;overflow=hidden;rotatable=0;points=[[0,0.5],[1,0.5]];portConstraint=eastwest;whiteSpace=wrap;html=1;" parent="b63PvhiUQrb2BFvBqu0z-6" vertex="1">
          <mxGeometry y="26" width="186" height="26" as="geometry" />
        </mxCell>
        <mxCell id="b63PvhiUQrb2BFvBqu0z-8" value="" style="line;strokeWidth=1;fillColor=none;align=left;verticalAlign=middle;spacingTop=-1;spacingLeft=3;spacingRight=3;rotatable=0;labelPosition=right;points=[];portConstraint=eastwest;strokeColor=inherit;" parent="b63PvhiUQrb2BFvBqu0z-6" vertex="1">
          <mxGeometry y="52" width="186" height="8" as="geometry" />
        </mxCell>
        <mxCell id="b63PvhiUQrb2BFvBqu0z-9" value="+ Location(name): void&lt;br&gt;&lt;br&gt;+ add(Location): void" style="text;strokeColor=none;fillColor=none;align=left;verticalAlign=top;spacingLeft=4;spacingRight=4;overflow=hidden;rotatable=0;points=[[0,0.5],[1,0.5]];portConstraint=eastwest;whiteSpace=wrap;html=1;" parent="b63PvhiUQrb2BFvBqu0z-6" vertex="1">
          <mxGeometry y="60" width="186" height="83" as="geometry" />
        </mxCell>
        <mxCell id="b63PvhiUQrb2BFvBqu0z-10" value="Temperature_list" style="swimlane;fontStyle=1;align=center;verticalAlign=top;childLayout=stackLayout;horizontal=1;startSize=26;horizontalStack=0;resizeParent=1;resizeParentMax=0;resizeLast=0;collapsible=1;marginBottom=0;whiteSpace=wrap;html=1;" parent="1" vertex="1">
          <mxGeometry x="956" y="270" width="232" height="126" as="geometry" />
        </mxCell>
        <mxCell id="b63PvhiUQrb2BFvBqu0z-11" value="+ temperatures: ArrayLIst&amp;lt;Temperature&amp;gt;" style="text;strokeColor=none;fillColor=none;align=left;verticalAlign=top;spacingLeft=4;spacingRight=4;overflow=hidden;rotatable=0;points=[[0,0.5],[1,0.5]];portConstraint=eastwest;whiteSpace=wrap;html=1;" parent="b63PvhiUQrb2BFvBqu0z-10" vertex="1">
          <mxGeometry y="26" width="232" height="26" as="geometry" />
        </mxCell>
        <mxCell id="b63PvhiUQrb2BFvBqu0z-12" value="" style="line;strokeWidth=1;fillColor=none;align=left;verticalAlign=middle;spacingTop=-1;spacingLeft=3;spacingRight=3;rotatable=0;labelPosition=right;points=[];portConstraint=eastwest;strokeColor=inherit;" parent="b63PvhiUQrb2BFvBqu0z-10" vertex="1">
          <mxGeometry y="52" width="232" height="8" as="geometry" />
        </mxCell>
        <mxCell id="b63PvhiUQrb2BFvBqu0z-13" value="+ Temperature(double): void&lt;br style=&quot;border-color: var(--border-color);&quot;&gt;&lt;br style=&quot;border-color: var(--border-color);&quot;&gt;+ add(Temperature): void" style="text;strokeColor=none;fillColor=none;align=left;verticalAlign=top;spacingLeft=4;spacingRight=4;overflow=hidden;rotatable=0;points=[[0,0.5],[1,0.5]];portConstraint=eastwest;whiteSpace=wrap;html=1;" parent="b63PvhiUQrb2BFvBqu0z-10" vertex="1">
          <mxGeometry y="60" width="232" height="66" as="geometry" />
        </mxCell>
        <mxCell id="b63PvhiUQrb2BFvBqu0z-14" value="Map" style="swimlane;fontStyle=1;align=center;verticalAlign=top;childLayout=stackLayout;horizontal=1;startSize=26;horizontalStack=0;resizeParent=1;resizeParentMax=0;resizeLast=0;collapsible=1;marginBottom=0;whiteSpace=wrap;html=1;" parent="1" vertex="1">
          <mxGeometry x="-5.5" y="813" width="232.5" height="195" as="geometry" />
        </mxCell>
        <mxCell id="b63PvhiUQrb2BFvBqu0z-15" value="+ Map: ArrayList&amp;lt;Map_item&amp;gt;" style="text;strokeColor=none;fillColor=none;align=left;verticalAlign=top;spacingLeft=4;spacingRight=4;overflow=hidden;rotatable=0;points=[[0,0.5],[1,0.5]];portConstraint=eastwest;whiteSpace=wrap;html=1;" parent="b63PvhiUQrb2BFvBqu0z-14" vertex="1">
          <mxGeometry y="26" width="232.5" height="30" as="geometry" />
        </mxCell>
        <mxCell id="b63PvhiUQrb2BFvBqu0z-16" value="" style="line;strokeWidth=1;fillColor=none;align=left;verticalAlign=middle;spacingTop=-1;spacingLeft=3;spacingRight=3;rotatable=0;labelPosition=right;points=[];portConstraint=eastwest;strokeColor=inherit;" parent="b63PvhiUQrb2BFvBqu0z-14" vertex="1">
          <mxGeometry y="56" width="232.5" height="8" as="geometry" />
        </mxCell>
        <mxCell id="b63PvhiUQrb2BFvBqu0z-17" value="+ CreateMap_item(sensor: Sensor, location: Location): void&lt;br&gt;&lt;br&gt;+ DeploySensorOk(item: Map_item): void&lt;br&gt;&lt;br&gt;+ LocationCovered(location: Location): void&lt;br&gt;" style="text;strokeColor=none;fillColor=none;align=left;verticalAlign=top;spacingLeft=4;spacingRight=4;overflow=hidden;rotatable=0;points=[[0,0.5],[1,0.5]];portConstraint=eastwest;whiteSpace=wrap;html=1;" parent="b63PvhiUQrb2BFvBqu0z-14" vertex="1">
          <mxGeometry y="64" width="232.5" height="131" as="geometry" />
        </mxCell>
        <mxCell id="b63PvhiUQrb2BFvBqu0z-18" value="Read" style="swimlane;fontStyle=1;align=center;verticalAlign=top;childLayout=stackLayout;horizontal=1;startSize=26;horizontalStack=0;resizeParent=1;resizeParentMax=0;resizeLast=0;collapsible=1;marginBottom=0;whiteSpace=wrap;html=1;" parent="1" vertex="1">
          <mxGeometry x="629" y="798" width="247" height="140" as="geometry" />
        </mxCell>
        <mxCell id="b63PvhiUQrb2BFvBqu0z-19" value="+ read: ArrayList&amp;lt;Read&amp;gt;" style="text;strokeColor=none;fillColor=none;align=left;verticalAlign=top;spacingLeft=4;spacingRight=4;overflow=hidden;rotatable=0;points=[[0,0.5],[1,0.5]];portConstraint=eastwest;whiteSpace=wrap;html=1;" parent="b63PvhiUQrb2BFvBqu0z-18" vertex="1">
          <mxGeometry y="26" width="247" height="26" as="geometry" />
        </mxCell>
        <mxCell id="b63PvhiUQrb2BFvBqu0z-20" value="" style="line;strokeWidth=1;fillColor=none;align=left;verticalAlign=middle;spacingTop=-1;spacingLeft=3;spacingRight=3;rotatable=0;labelPosition=right;points=[];portConstraint=eastwest;strokeColor=inherit;" parent="b63PvhiUQrb2BFvBqu0z-18" vertex="1">
          <mxGeometry y="52" width="247" height="8" as="geometry" />
        </mxCell>
        <mxCell id="b63PvhiUQrb2BFvBqu0z-21" value="+ CreateRead_item(sensor: Sensor, temp: Temperature): void&lt;br&gt;&lt;br&gt;+ DeploySensorOk(item: Read_item): void" style="text;strokeColor=none;fillColor=none;align=left;verticalAlign=top;spacingLeft=4;spacingRight=4;overflow=hidden;rotatable=0;points=[[0,0.5],[1,0.5]];portConstraint=eastwest;whiteSpace=wrap;html=1;" parent="b63PvhiUQrb2BFvBqu0z-18" vertex="1">
          <mxGeometry y="60" width="247" height="80" as="geometry" />
        </mxCell>
        <mxCell id="oEohqEdP6WWGYrVx_0mw-5" value="Registry" style="swimlane;fontStyle=1;align=center;verticalAlign=top;childLayout=stackLayout;horizontal=1;startSize=26;horizontalStack=0;resizeParent=1;resizeParentMax=0;resizeLast=0;collapsible=1;marginBottom=0;whiteSpace=wrap;html=1;" vertex="1" parent="1">
          <mxGeometry x="12" y="-41" width="205" height="114" as="geometry" />
        </mxCell>
        <mxCell id="oEohqEdP6WWGYrVx_0mw-6" value="+&amp;nbsp;" style="text;strokeColor=none;fillColor=none;align=left;verticalAlign=top;spacingLeft=4;spacingRight=4;overflow=hidden;rotatable=0;points=[[0,0.5],[1,0.5]];portConstraint=eastwest;whiteSpace=wrap;html=1;" vertex="1" parent="oEohqEdP6WWGYrVx_0mw-5">
          <mxGeometry y="26" width="205" height="26" as="geometry" />
        </mxCell>
        <mxCell id="oEohqEdP6WWGYrVx_0mw-7" value="" style="line;strokeWidth=1;fillColor=none;align=left;verticalAlign=middle;spacingTop=-1;spacingLeft=3;spacingRight=3;rotatable=0;labelPosition=right;points=[];portConstraint=eastwest;strokeColor=inherit;" vertex="1" parent="oEohqEdP6WWGYrVx_0mw-5">
          <mxGeometry y="52" width="205" height="8" as="geometry" />
        </mxCell>
        <mxCell id="oEohqEdP6WWGYrVx_0mw-8" value="+ main(args: String[]): void&lt;br&gt;+ collectionLocAndTemp(): List&amp;lt;&amp;gt;" style="text;strokeColor=none;fillColor=none;align=left;verticalAlign=top;spacingLeft=4;spacingRight=4;overflow=hidden;rotatable=0;points=[[0,0.5],[1,0.5]];portConstraint=eastwest;whiteSpace=wrap;html=1;" vertex="1" parent="oEohqEdP6WWGYrVx_0mw-5">
          <mxGeometry y="60" width="205" height="54" as="geometry" />
        </mxCell>
      </root>
    </mxGraphModel>
  </diagram>
</mxfile>
